<svg width="16" height="15" viewBox="0 0 16 15" fill="none" xmlns="http://www.w3.org/2000/svg">
<path d="M14.0025 9.84578C13.0841 9.84578 12.1824 9.70215 11.3279 9.41977C10.9092 9.27695 10.3945 9.40797 10.1389 9.67043L8.4523 10.9436C6.49633 9.89953 5.29148 8.69508 4.26164 6.75379L5.49738 5.11113C5.81844 4.79051 5.93359 4.32215 5.79563 3.8827C5.51203 3.02371 5.36797 2.12242 5.36797 1.20367C5.36801 0.539961 4.82805 0 4.16438 0H1.40969C0.746016 0 0.206055 0.539961 0.206055 1.20363C0.206055 8.81105 6.39504 15 14.0025 15C14.6661 15 15.2061 14.46 15.2061 13.7964V11.0494C15.2061 10.3857 14.6661 9.84578 14.0025 9.84578Z" fill="black"/>
</svg>
