<svg width="30" height="32" viewBox="0 0 30 32" fill="none" xmlns="http://www.w3.org/2000/svg">
<g clip-path="url(#clip0_1_1658)">
<path d="M8.10547 22.8723H21.3381C21.6658 22.8723 21.9532 22.6556 22.0419 22.3409L24.9718 12.0868C25.0347 11.8657 24.9916 11.6283 24.8529 11.4446C24.7141 11.2615 24.4982 11.1533 24.2678 11.1533H6.4146L5.89104 8.79736C5.81665 8.46186 5.5191 8.22363 5.17578 8.22363H0.732422C0.327683 8.22363 0 8.55132 0 8.95605C0 9.36099 0.327683 9.68848 0.732422 9.68848H4.58794L7.23286 21.5903C6.45466 21.9287 5.9082 22.7033 5.9082 23.6047C5.9082 24.8162 6.89392 25.802 8.10547 25.802H21.3381C21.743 25.802 22.0705 25.4745 22.0705 25.0695C22.0705 24.6648 21.743 24.3371 21.3381 24.3371H8.10547C7.70206 24.3371 7.37305 24.0089 7.37305 23.6047C7.37305 23.2005 7.70206 22.8723 8.10547 22.8723V22.8723Z" fill="#4BA9FF"/>
<path d="M7.37305 27.9993C7.37305 29.211 8.35876 30.1965 9.5705 30.1965C10.7821 30.1965 11.7678 29.211 11.7678 27.9993C11.7678 26.7877 10.7821 25.802 9.5705 25.802C8.35876 25.802 7.37305 26.7877 7.37305 27.9993Z" fill="#4BA9FF"/>
<path d="M17.6758 27.9993C17.6758 29.211 18.6615 30.1965 19.873 30.1965C21.0848 30.1965 22.0703 29.211 22.0703 27.9993C22.0703 26.7877 21.0848 25.802 19.873 25.802C18.6615 25.802 17.6758 26.7877 17.6758 27.9993Z" fill="#4BA9FF"/>
</g>
<g clip-path="url(#clip1_1_1658)">
<ellipse cx="22.0705" cy="7.99956" rx="7.0754" ry="7.075" fill="#FF8181"/>
</g>
<defs>
<clipPath id="clip0_1_1658">
<rect width="25" height="25" fill="white" transform="translate(0 6.70996)"/>
</clipPath>
<clipPath id="clip1_1_1658">
<rect width="15" height="15" fill="white" transform="translate(14.5703 0.5)"/>
</clipPath>
</defs>
</svg>
