<svg width="26" height="25" viewBox="0 0 26 25" fill="none" xmlns="http://www.w3.org/2000/svg">
<path d="M13.2499 13.2388C16.3455 13.2388 18.8552 10.3014 18.8552 6.67794C18.8552 1.65325 16.3456 0.117188 13.2499 0.117188C10.154 0.117188 7.64453 1.65325 7.64453 6.67794C7.64459 10.3014 10.1541 13.2388 13.2499 13.2388Z" fill="#4BA9FF"/>
<path d="M25.6278 22.8954L22.7999 16.5249C22.6705 16.2334 22.4433 15.9916 22.1605 15.8444L17.7716 13.5597C17.6749 13.5094 17.5577 13.5192 17.4707 13.5851C16.2293 14.5239 14.7698 15.0202 13.2501 15.0202C11.7301 15.0202 10.2707 14.5239 9.02942 13.5851C8.94217 13.5192 8.82498 13.5094 8.72819 13.5597L4.33967 15.8444C4.05672 15.9916 3.82973 16.2333 3.70026 16.5249L0.872298 22.8954C0.677327 23.3346 0.717287 23.8371 0.979223 24.2399C1.24104 24.6427 1.68414 24.883 2.16457 24.883H24.3354C24.8159 24.883 25.2591 24.6425 25.5209 24.2398C25.7827 23.8371 25.8228 23.3344 25.6278 22.8954Z" fill="#4BA9FF"/>
</svg>
