<svg width="25" height="25" viewBox="0 0 25 25" fill="none" xmlns="http://www.w3.org/2000/svg">
<g clip-path="url(#clip0_1_138)">
<path d="M8.25179 16.1623H21.0433C21.3601 16.1623 21.6379 15.9457 21.7237 15.631L24.5559 5.37686C24.6167 5.15579 24.5751 4.91833 24.441 4.73465C24.3068 4.55155 24.0981 4.4434 23.8753 4.4434H6.61729L6.11117 2.08744C6.03927 1.75194 5.75164 1.51371 5.41976 1.51371H1.12451C0.733264 1.51371 0.416504 1.84139 0.416504 2.24613C0.416504 2.65106 0.733264 2.97855 1.12451 2.97855H4.85151L7.40827 14.8804C6.65601 15.2188 6.12777 15.9934 6.12777 16.8948C6.12777 18.1063 7.08063 19.092 8.25179 19.092H21.0433C21.4347 19.092 21.7513 18.7645 21.7513 18.3596C21.7513 17.9549 21.4347 17.6272 21.0433 17.6272H8.25179C7.86183 17.6272 7.54378 17.2989 7.54378 16.8948C7.54378 16.4906 7.86183 16.1623 8.25179 16.1623V16.1623Z" fill="#4BA9FF"/>
<path d="M7.54395 21.2893C7.54395 22.501 8.49681 23.4866 9.66815 23.4866C10.8393 23.4866 11.7922 22.501 11.7922 21.2893C11.7922 20.0778 10.8393 19.092 9.66815 19.092C8.49681 19.092 7.54395 20.0778 7.54395 21.2893Z" fill="#4BA9FF"/>
<path d="M17.5034 21.2893C17.5034 22.501 18.4563 23.4866 19.6274 23.4866C20.7988 23.4866 21.7515 22.501 21.7515 21.2893C21.7515 20.0778 20.7988 19.092 19.6274 19.092C18.4563 19.092 17.5034 20.0778 17.5034 21.2893Z" fill="#4BA9FF"/>
</g>
<defs>
<clipPath id="clip0_1_138">
<rect width="24.1667" height="25" fill="white" transform="translate(0.416504)"/>
</clipPath>
</defs>
</svg>
